<svg width="87" height="88" viewBox="0 0 87 88" fill="none" xmlns="http://www.w3.org/2000/svg">
<path d="M43.3253 68.8018C40.0287 68.8018 36.8302 68.1455 33.8193 66.8526C30.9108 65.6033 28.2988 63.8155 26.0575 61.5371C23.814 59.2587 22.0546 56.6075 20.8249 53.6533C19.5516 50.5943 18.9062 47.3479 18.9062 43.999C18.9062 40.6501 19.5516 37.4037 20.8249 34.3448C22.0546 31.3905 23.8162 28.7393 26.0575 26.4609C28.301 24.1826 30.913 22.3947 33.8193 21.1454C36.8302 19.8526 40.0287 19.1963 43.3253 19.1963C46.6218 19.1963 49.8203 19.8526 52.8312 21.1454C55.7397 22.3947 58.3517 24.1826 60.593 26.4609C62.8365 28.7393 64.596 31.3905 65.8278 34.3448C67.1011 37.4037 67.7465 40.6501 67.7465 43.999C67.7465 47.3479 67.1011 50.5943 65.8278 53.6533C64.5981 56.6075 62.8365 59.2587 60.593 61.5371C58.3495 63.8155 55.7375 65.6033 52.8312 66.8526C49.8203 68.1477 46.6218 68.8018 43.3253 68.8018ZM43.3253 20.4303C40.1922 20.4303 37.1529 21.0539 34.2902 22.2814C31.5256 23.4674 29.0445 25.168 26.9122 27.3331C24.7799 29.4981 23.1076 32.0184 21.939 34.8245C20.729 37.7308 20.1163 40.8158 20.1163 43.999C20.1163 47.1822 20.729 50.2673 21.939 53.1736C23.1076 55.9796 24.7821 58.5022 26.9122 60.665C29.0445 62.83 31.5256 64.5284 34.2902 65.7167C37.1507 66.9463 40.19 67.5677 43.3253 67.5677C46.4605 67.5677 49.4976 66.9442 52.3603 65.7167C55.1249 64.5306 57.606 62.83 59.7383 60.665C61.8706 58.5 63.5429 55.9796 64.7115 53.1736C65.9216 50.2673 66.5342 47.1822 66.5342 43.999C66.5342 40.8158 65.9216 37.7308 64.7115 34.8245C63.5429 32.0184 61.8685 29.4959 59.7383 27.3331C57.606 25.168 55.1249 23.4696 52.3603 22.2814C49.4976 21.0539 46.4583 20.4303 43.3253 20.4303Z" fill="#C8161E"/>
<path d="M43.3255 85.1086C40.5784 85.1086 37.8356 84.8273 35.1692 84.2735C32.5703 83.7328 30.0128 82.9283 27.5709 81.8774C25.1726 80.8462 22.8594 79.5729 20.6944 78.0881C18.5512 76.6186 16.5366 74.9289 14.703 73.0691C12.8716 71.2094 11.208 69.1621 9.76031 66.9862C8.29735 64.7885 7.0437 62.4382 6.02769 60.0028C4.99424 57.5216 4.20063 54.9249 3.66864 52.2868C3.12357 49.5789 2.84668 46.7904 2.84668 44.0018C2.84668 41.2132 3.12357 38.4247 3.66864 35.7168C4.20063 33.0765 4.99424 30.482 6.02769 28.0008C7.04152 25.5655 8.29735 23.2151 9.76031 21.0174C11.208 18.8415 12.8716 16.7942 14.703 14.9345C16.5344 13.0747 18.5512 11.385 20.6944 9.91549C22.8594 8.43072 25.1726 7.15526 27.5709 6.12618C30.015 5.07747 32.5703 4.27077 35.1692 3.73006C37.8356 3.17627 40.5806 2.89502 43.3255 2.89502C46.0705 2.89502 48.8155 3.17627 51.4819 3.73006C54.0808 4.27077 56.6383 5.07529 59.0802 6.12618C61.4785 7.15744 63.7917 8.43072 65.9567 9.91549C68.0999 11.385 70.1145 13.0747 71.9481 14.9345C73.7795 16.7942 75.4431 18.8415 76.8908 21.0174C78.3537 23.2151 79.6074 25.5655 80.6234 28.0008C81.6568 30.482 82.4505 33.0787 82.9824 35.7168C83.5275 38.4247 83.8044 41.2132 83.8044 44.0018C83.8044 46.7904 83.5275 49.5789 82.9824 52.2868C82.4505 54.9271 81.6568 57.5216 80.6234 60.0028C79.6096 62.4382 78.3537 64.7885 76.8908 66.9862C75.4431 69.1621 73.7795 71.2094 71.9481 73.0691C70.1167 74.9289 68.0999 76.6186 65.9567 78.0881C63.7917 79.5729 61.4785 80.8484 59.0802 81.8774C56.6361 82.9261 54.0808 83.7328 51.4819 84.2735C48.8155 84.8273 46.0705 85.1086 43.3255 85.1086ZM43.3255 3.66029C40.6307 3.66029 37.9359 3.93501 35.3196 4.48008C32.7687 5.00988 30.2614 5.80132 27.8631 6.8304C25.5084 7.84205 23.2387 9.09352 21.1152 10.5499C19.0112 11.9933 17.0337 13.6503 15.235 15.4752C13.4362 17.3001 11.8054 19.3103 10.3839 21.4447C8.94925 23.601 7.7174 25.9078 6.72102 28.2973C5.70719 30.7327 4.92884 33.2792 4.40557 35.8694C3.86923 38.5272 3.59887 41.2634 3.59887 43.9996C3.59887 46.7359 3.87141 49.4721 4.40557 52.1298C4.92666 54.72 5.70719 57.2666 6.72102 59.7019C7.7174 62.0915 8.94925 64.3982 10.3839 66.5545C11.8054 68.6912 13.4362 70.6992 15.235 72.5241C17.0337 74.349 19.0112 76.0081 21.1152 77.4493C23.2387 78.9057 25.5084 80.1572 27.8631 81.1688C30.2592 82.1979 32.7687 82.9894 35.3196 83.5192C37.9359 84.0621 40.6307 84.339 43.3255 84.339C46.0204 84.339 48.7152 84.0642 51.3315 83.5192C53.8824 82.9894 56.3897 82.1979 58.788 81.1688C61.1427 80.1572 63.4124 78.9057 65.5359 77.4493C67.6399 76.006 69.6174 74.349 71.4161 72.5241C73.2127 70.6992 74.8457 68.689 76.2672 66.5545C77.7018 64.3982 78.9337 62.0915 79.9301 59.7019C80.9439 57.2666 81.7223 54.72 82.2455 52.1298C82.7819 49.4721 83.0522 46.7359 83.0522 43.9996C83.0522 41.2634 82.7797 38.5272 82.2455 35.8694C81.7244 33.2792 80.9439 30.7327 79.9301 28.2973C78.9337 25.9078 77.7018 23.601 76.2672 21.4447C74.8457 19.3081 73.2149 17.3001 71.4161 15.4752C69.6174 13.6503 67.6399 11.9911 65.5359 10.5499C63.4124 9.09352 61.1427 7.84205 58.788 6.8304C56.3919 5.80132 53.8824 5.00988 51.3315 4.48008C48.713 3.93501 46.0204 3.66029 43.3255 3.66029Z" fill="#C8161E"/>
<path d="M43.3263 88C40.3873 88 37.4505 87.6991 34.5965 87.1061C31.8145 86.5283 29.0782 85.6649 26.4619 84.5421C23.8936 83.4389 21.419 82.074 19.1013 80.4846C16.8077 78.9105 14.6492 77.103 12.6892 75.1124C10.7291 73.1218 8.95 70.9307 7.39983 68.6021C5.8344 66.2496 4.49135 63.7358 3.40558 61.1282C2.30018 58.4726 1.44988 55.6928 0.880829 52.8671C0.296517 49.9696 0 46.9848 0 44C0 41.0152 0.296517 38.0326 0.880829 35.1328C1.44988 32.3072 2.30018 29.5274 3.40558 26.8718C4.49135 24.2642 5.83658 21.7504 7.39983 19.3978C8.95 17.0671 10.7291 14.8782 12.6892 12.8876C14.6492 10.897 16.8077 9.08954 19.1013 7.51539C21.4168 5.92597 23.8936 4.56112 26.4619 3.45791C29.0761 2.33507 31.8145 1.47168 34.5965 0.89391C37.4505 0.300877 40.3873 0 43.3263 0C46.2653 0 49.2021 0.300877 52.0561 0.89391C54.8381 1.47168 57.5744 2.33507 60.1907 3.45791C62.759 4.56112 65.2336 5.92597 67.5513 7.51539C69.8449 9.08954 72.0034 10.897 73.9634 12.8876C75.9235 14.8782 77.7026 17.0693 79.2528 19.3978C80.8182 21.7504 82.1612 24.2642 83.247 26.8718C84.3524 29.5274 85.2027 32.3072 85.7718 35.1328C86.3561 38.0304 86.6526 41.0152 86.6526 44C86.6526 46.9848 86.3561 49.9674 85.7718 52.8671C85.2027 55.6928 84.3524 58.4726 83.247 61.1282C82.1612 63.7358 80.816 66.2496 79.2528 68.6021C77.7026 70.9328 75.9235 73.1218 73.9634 75.1124C72.0034 77.103 69.8449 78.9105 67.5513 80.4846C65.2358 82.074 62.759 83.4389 60.1907 84.5421C57.5765 85.6649 54.8381 86.5283 52.0561 87.1061C49.2021 87.6991 46.2653 88 43.3263 88ZM43.3263 1.72241C40.5007 1.72241 37.6772 2.01239 34.9344 2.58144C32.2614 3.13741 29.632 3.96591 27.1204 5.04514C24.6545 6.10475 22.2736 7.41509 20.0498 8.94346C17.8455 10.4566 15.7721 12.1942 13.8883 14.1063C12.0046 16.0206 10.293 18.1246 8.80393 20.3637C7.29954 22.6246 6.00882 25.0404 4.96665 27.5455C3.90486 30.0964 3.08726 32.7673 2.54219 35.4795C1.98186 38.2659 1.69625 41.1329 1.69625 44.0022C1.69625 46.8714 1.98186 49.7385 2.54219 52.5248C3.08944 55.2393 3.90486 57.9079 4.96665 60.4588C6.011 62.964 7.30172 65.3797 8.80393 67.6407C10.293 69.8798 12.0046 71.9859 13.8883 73.898C15.7721 75.8123 17.8455 77.5478 20.0498 79.0609C22.2758 80.5871 24.6545 81.8996 27.1204 82.9592C29.632 84.0384 32.2614 84.8669 34.9344 85.4229C37.6772 85.992 40.5007 86.2819 43.3263 86.2819C46.1519 86.2819 48.9754 85.992 51.7182 85.4229C54.3912 84.8669 57.0206 84.0384 59.5322 82.9592C61.9981 81.8996 64.379 80.5893 66.6029 79.0609C68.8071 77.5478 70.8805 75.8101 72.7643 73.898C74.648 71.9837 76.3596 69.8798 77.8487 67.6407C79.3531 65.3797 80.6438 62.964 81.686 60.4588C82.7477 57.9079 83.5653 55.2371 84.1104 52.5248C84.6707 49.7385 84.9564 46.8714 84.9564 44.0022C84.9564 41.1329 84.6707 38.2659 84.1104 35.4795C83.5632 32.7651 82.7477 30.0964 81.686 27.5455C80.6416 25.0404 79.3509 22.6246 77.8487 20.3637C76.3596 18.1246 74.648 16.0184 72.7643 14.1063C70.8805 12.1921 68.8071 10.4566 66.6029 8.94346C64.3768 7.41727 61.9981 6.10475 59.5322 5.04514C57.0206 3.96591 54.3912 3.13741 51.7182 2.58144C48.9732 2.01021 46.1497 1.72241 43.3263 1.72241Z" fill="#C8161E"/>
<path d="M34.4022 26.7032C34.4022 26.7032 37.2169 25.9772 39.2337 27.1567C41.2483 28.3341 42.6524 30.6277 41.9089 34.7789C41.9089 34.7789 46.143 32.566 48.8945 32.4395C52.1649 32.2891 53.7259 32.3632 56.3248 33.4969C58.9259 34.6285 60.7093 36.9679 61.8976 39.3074C63.0858 41.6468 63.4587 45.7217 63.4587 47.0059C62.2704 47.1563 62.4187 47.0822 61.6752 47.0822C61.5269 46.1011 61.7493 40.8946 58.8517 37.7245C56.0239 34.6329 53.872 33.5732 49.2651 33.7237C44.6582 33.8741 41.8348 35.6096 41.0913 36.2899C40.3478 36.9701 41.6865 33.2549 40.1843 30.2876C40.241 30.3508 39.7068 28.5739 37.2257 28.1378C36.6479 28.0375 35.7169 28.0615 34.847 28.0615C34.254 27.3072 34.4022 26.7032 34.4022 26.7032Z" fill="#C8161E"/>
<path d="M32.3933 29.421C32.3933 29.421 35.2081 28.695 37.2248 29.8745C39.2394 31.0518 40.7917 33.4218 40.0483 37.573C40.0483 37.573 44.1341 35.2859 46.8856 35.1573C50.156 35.0068 51.6408 35.2336 54.2418 36.3652C56.8429 37.4967 58.1053 39.6857 59.2957 42.0251C60.4839 44.3646 60.7826 48.8167 60.7826 50.1008C59.5944 50.2513 59.8102 50.0943 59.0667 50.0943C58.9185 49.1132 59.4461 43.6843 56.5464 40.5164C53.7186 37.4248 51.8653 36.291 47.2562 36.4415C42.6493 36.5919 39.6842 38.661 38.9407 39.339C38.1972 40.0193 39.416 35.5912 38.1166 32.9705C38.0708 32.9552 37.6979 31.2917 35.219 30.8578C34.6412 30.7575 33.7102 30.7815 32.8403 30.7815C32.2451 30.0249 32.3933 29.421 32.3933 29.421Z" fill="#C8161E"/>
<path d="M30.4439 33.4981C30.4439 33.4981 29.659 32.2706 30.7469 31.9022C31.8349 31.5337 36.9149 31.1173 37.6976 35.9531C38.3015 40.1894 37.0937 40.9241 37.0937 40.9241C36.7906 41.4757 37.0326 42.0295 39.2696 40.2482C41.5065 38.4691 47.4282 37.3637 50.9951 38.7133C54.8127 40.1588 57.7648 43.3791 57.7038 52.0936C57.6427 52.7695 57.8847 52.9527 55.9508 52.8916C54.0169 52.8306 50.208 52.8306 50.208 52.8306C50.208 52.8306 49.9049 53.6285 50.1469 51.2957C50.1469 48.8407 49.724 45.9562 46.8831 45.2192C44.0422 44.4823 41.0814 46.0172 38.4215 47.4911C35.7615 48.965 33.7077 52.279 33.5268 52.8306C33.2237 52.8916 23.4932 52.8916 23.4932 52.8916C23.4932 52.8916 29.0572 44.321 29.9598 40.4924C30.9889 36.1384 30.808 35.77 30.4439 33.4981ZM77.2695 34.5774C77.2281 34.4008 77.252 34.3462 76.8116 33.9734C76.3712 33.6006 76.6852 33.6507 76.8029 33.6486C76.9185 33.6464 79.5936 33.6507 79.8596 33.5439C80.1256 33.4371 80.5748 33.5679 80.5748 33.5679C81.2616 33.3346 80.9738 32.8244 80.9193 32.6892C80.8648 32.5519 80.6903 32.5519 80.5508 32.759C80.4113 32.9661 80.1867 32.9509 80.1867 32.9509C80.1867 32.9509 79.0944 32.7568 77.4853 32.8375C75.8588 33.1079 76.0834 32.7045 76.3647 32.5606C76.6459 32.4167 76.6329 32.5715 77.5115 32.602C78.3901 32.6347 78.2768 31.9349 78.2571 31.8825C78.2375 31.8302 78.0675 31.4378 78.1961 31.5054C78.3247 31.5729 79.6743 32.3535 80.2107 32.5977C80.747 32.8419 80.6053 32.3339 80.6053 32.3339C80.6053 32.3339 79.0028 31.2088 78.449 30.9559C77.8952 30.703 78.0958 30.6529 78.1612 30.6703C78.2266 30.6878 78.8371 31.0083 79.2993 31.2524C79.7615 31.4966 79.7986 31.2895 79.8989 31.2481C79.9992 31.2067 80.13 30.304 80.1038 30.0468C80.0755 29.7895 79.6264 29.6151 79.6155 29.8113C79.6046 30.0075 79.4672 30.11 79.2688 30.086C79.0682 30.062 78.1416 29.9465 78.026 29.9486C77.9105 29.9508 77.481 29.9465 77.7731 29.6783C78.0653 29.4101 78.1285 28.8629 78.1372 28.6972C78.146 28.5293 78.4272 27.716 78.3029 27.437C78.1787 27.1601 77.9912 27.2059 77.9912 27.2059C77.9912 27.2059 77.8233 27.2298 77.832 27.5089C77.6074 28.3592 77.6946 28.1303 77.058 28.4181C76.4214 28.7059 76.8356 28.8214 76.5435 28.9392C76.2513 29.0569 75.6735 29.3055 75.6735 29.3055C75.6735 29.3055 75.1394 29.179 74.9235 29.2662C74.7077 29.3534 74.4722 29.0918 74.8755 28.9566C75.2789 28.8214 75.2397 28.6884 75.3116 28.5707C75.3836 28.453 75.5471 27.6397 75.1895 27.6223C74.7404 27.788 74.7513 28.1129 74.5158 28.2982C74.2803 28.4835 74.0798 28.3854 73.5478 28.6012C73.297 29.4188 73.2883 29.4363 73.8203 29.5933C74.1059 29.6325 74.4264 29.4515 74.5093 29.6281C74.6684 29.9225 74.8668 29.9007 74.8668 29.9007C74.8668 29.9007 75.3661 29.9377 75.6626 29.9813C75.9591 30.025 76.1118 30.1885 75.994 30.1907C75.8785 30.1928 75.8676 30.3912 75.6997 30.413C75.5318 30.437 74.4809 30.1907 74.4809 30.1907C74.4809 30.1907 71.7294 28.756 70.2229 28.2459C69.3093 29.0635 69.1632 29.4363 70.6764 29.9268C72.1895 30.4174 73.805 31.5381 74.1299 31.8062C74.4548 32.0744 75.292 32.7852 75.292 32.7852C75.292 32.7852 75.2898 33.2626 75.8196 33.5265C76.3494 33.7903 76.0049 33.5461 76.2142 33.7837C77.215 34.9131 76.3276 34.4836 76.3276 34.4836C76.3276 34.4836 76.284 34.3375 75.5056 33.9211C74.7251 33.5068 74.204 32.8135 73.7767 32.5475C73.4627 32.5693 73.4061 32.4298 73.4061 32.4298C73.4061 32.4298 73.345 32.2009 73.1204 31.815C72.4424 31.8804 72.4903 31.9654 72.6866 32.3905C72.8828 32.8157 72.8566 32.7132 72.4424 32.9552C72.0259 33.1972 72.0194 33.0817 71.6749 32.8004C70.8442 31.32 68.9496 30.1209 68.9496 30.1209C68.132 29.796 68.1974 29.1419 67.9031 30.9319C67.3536 32.8244 67.7613 32.9269 67.6763 34.1696C67.5913 35.4124 67.9445 35.299 68.5157 35.1115C69.0891 34.924 68.9409 34.6253 70.1858 34.2416C71.4307 33.8579 71.2083 33.7031 71.3261 33.8535C71.5812 34.1805 71.5441 34.3332 71.8624 35.2162C72.3312 35.9967 72.7389 35.5781 72.7542 35.4669C72.7694 35.3557 72.9264 35.009 73.0855 34.7801C73.2447 34.5512 72.9918 34.2808 72.8043 34.1784C72.6168 34.0759 72.1131 34.0257 72.2222 33.5941C72.4511 33.2038 73.055 33.509 73.1989 33.5417C73.3428 33.5723 73.5587 33.4109 73.4758 33.2365C73.393 33.0621 73.6045 32.9313 73.6808 33.1231C74.2847 33.8775 75.728 34.7103 76.3952 35.0657C77.058 35.4233 77.3087 34.754 77.2695 34.5774ZM76.3908 31.6231C76.5413 31.3266 76.3974 31.32 76.4693 31.2285C76.5413 31.1369 77.0624 31.3506 77.0624 31.3506C77.0624 31.3506 77.1016 31.4923 76.8923 31.5926C76.683 31.6929 76.3603 31.9807 76.0202 31.8673C75.6801 31.7517 75.3966 31.3462 75.1546 31.0497C74.9126 30.7532 75.0325 30.7379 75.0325 30.7379C75.0325 30.7379 75.534 30.7946 75.6474 31.041C75.9461 31.6776 76.1924 31.8302 76.3908 31.6231ZM76.7222 30.6376C76.3516 30.5351 76.2251 30.413 76.3603 30.28L76.8814 30.4784C76.8814 30.4784 77.0929 30.7401 76.7222 30.6376ZM76.2077 29.5213C76.6852 29.2967 76.8182 29.5584 76.8182 29.5584L76.877 29.7088C76.9359 29.8593 76.7811 29.9683 76.9512 30.0424C77.119 30.1165 77.082 29.9421 77.2346 30.1318C77.3872 30.3215 77.1016 30.28 77.1016 30.28C77.1016 30.28 76.6721 30.0446 76.6263 30.0468C76.5805 30.0489 75.7324 29.7459 76.2077 29.5213ZM75.3051 32.3775C75.2615 32.3469 75.1721 32.275 74.954 31.937C74.736 31.5991 72.4206 30.171 71.4002 29.5911C70.3798 29.0111 70.9314 29.118 70.9314 29.118C70.9314 29.118 72.9155 29.844 73.3058 30.2081C73.696 30.57 74.0928 30.3934 74.1997 30.666C74.3065 30.9385 74.6139 31.2088 74.7883 31.5141C74.9628 31.8193 75.5536 32.2009 75.5536 32.2009C75.728 32.5083 75.3487 32.408 75.3051 32.3775ZM77.191 31.961C77.0427 31.8629 77.2608 31.743 77.4221 31.6776C77.5028 31.6449 77.7361 31.7125 77.675 31.8062C77.6161 31.8956 77.2651 32.009 77.191 31.961ZM68.036 32.1049C68.2759 31.4094 67.9815 30.413 68.6901 31.32C69.9285 32.0766 70.8093 33.3172 70.8093 33.3172C70.8093 33.3172 70.2098 33.557 69.8566 33.6987C69.2766 33.932 68.8144 34.1173 68.7185 34.1631C68.4983 34.2678 68.06 32.4341 68.036 32.1049ZM69.7323 14.4905C69.7323 14.4905 70.1618 15.7725 69.9896 16.1999C69.8151 16.6272 69.3616 17.2072 68.6967 17.6061C68.0317 18.0051 67.4125 18.4434 67.0527 18.8162C66.693 19.189 66.161 19.5182 66.004 19.6469C66.004 19.6469 65.5745 19.854 66.3812 19.9696C67.1879 20.0829 67.2839 20.2181 67.4975 20.2682C67.7112 20.3206 68.2018 20.6607 68.1058 19.5335C68.3827 19.019 68.8406 19.298 68.7076 19.7079C68.5746 20.1178 68.8079 20.4274 68.8079 20.4274C68.8079 20.4274 69.9394 21.2058 68.435 21.2516C66.9285 21.2973 66.935 20.7021 66.2722 20.6324C65.6094 20.5626 65.411 20.3664 65.1864 20.3576C64.9619 20.3489 62.8862 22.0779 61.5105 22.1847C60.1348 22.2915 58.2445 21.0946 58.8898 20.1287C59.6311 19.9783 59.2844 20.4906 59.5395 20.7108C59.7946 20.9311 60.6929 21.6178 62.8775 20.8438C65.0622 20.0698 64.4168 19.8845 64.1399 19.9107C63.863 19.9347 61.3971 19.213 61.3971 19.213C61.3971 19.213 60.73 19.3961 60.8499 18.5066C60.9698 17.617 61.2729 17.9027 61.5781 18.2166C61.8833 18.5306 61.5563 18.4608 62.5592 18.7421C63.3179 18.9448 65.0556 19.4877 65.0556 19.4877C65.0556 19.4877 66.1349 18.7312 66.4205 18.3867C67.2512 17.3859 68.4852 15.8946 69.1916 15.0225C69.6146 14.2856 69.7323 14.4905 69.7323 14.4905Z" fill="#C8161E"/>
<path d="M64.9371 21.0853C64.9371 21.0853 65.1376 24.5911 65.3295 24.7917C65.5214 24.9923 65.8898 25.291 66.3957 25.6115C66.6006 25.8775 65.9138 26.1479 64.9632 25.956C64.0105 25.762 63.2626 25.7009 63.6049 24.2009C63.9494 22.7009 64.6863 20.8716 64.6863 20.8716C64.6863 20.8716 64.9131 20.6819 64.9371 21.0853ZM51.1185 6.95932C51.1185 6.95932 49.9368 8.25876 49.9128 8.38304C49.891 8.50731 49.5051 9.17447 50.0437 9.62797C50.5844 10.0815 50.8242 9.51678 50.8242 9.51678L50.9637 9.0175C50.9637 9.0175 51.6832 8.68391 51.0793 8.48987C50.9507 8.17373 51.2145 8.2108 51.2145 8.2108L51.4739 7.22313C51.4739 7.22313 51.5023 6.86993 51.1185 6.95932ZM52.5597 7.85105C52.5597 7.85105 53.3555 8.68173 54.1665 8.36559C54.9776 8.04946 55.6513 8.18245 55.7276 8.19117C55.8061 8.19989 56.2683 7.80527 56.4907 7.82707C56.7109 7.84887 57.3497 8.66211 57.3497 8.71226C57.3497 8.7624 57.7051 9.2377 56.5692 9.18756C55.4333 9.13523 54.5917 9.70646 54.4456 9.75879C54.2995 9.81111 53.8351 9.79367 54.1142 9.25732C54.6484 8.94991 55.8781 8.48769 54.7988 8.62069C54.7988 8.62069 54.6702 8.82781 54.3606 8.77766C54.3606 8.77766 53.894 8.65993 53.8177 8.80165C53.7414 8.94337 53.8657 9.32709 53.8373 9.41648C53.809 9.50587 53.9442 9.69774 53.096 9.86998C53.096 9.86998 52.6077 10.1905 52.6949 9.59309C52.7821 8.99569 52.1084 8.66429 52.0299 8.60542C51.9514 8.54656 51.8206 8.38958 52.1062 8.15193C52.3918 7.91428 52.5597 7.85105 52.5597 7.85105ZM51.5502 12.8133C51.8904 12.7915 52.5946 12.0611 52.6622 11.9521C52.7298 11.8409 52.6055 11.4572 52.0386 11.455C51.4717 11.455 51.62 11.2872 51.8882 11.2087C52.1563 11.1302 52.0713 10.7246 51.9863 10.6309C51.9013 10.5371 52.0037 10.4717 52.067 10.1142C52.1302 9.75661 51.4935 9.81547 51.4935 9.81547C51.2995 10.6418 51.0771 10.5873 51.0771 10.5873C50.8373 10.5262 50.3794 11.056 50.5451 11.2065C51.04 11.3853 50.5866 11.6469 50.5866 11.6469C50.5866 11.6469 49.3329 12.1832 49.322 12.0655C49.3111 11.9456 49.2784 11.7886 49.1214 11.7712C48.9644 11.7537 48.9426 11.5662 48.6941 12.277C48.4477 12.9878 48.838 12.833 49.0495 12.8351C49.2609 12.8351 49.5836 12.5779 50.0197 12.3729C50.4557 12.168 50.1069 12.6149 50.1069 12.6149L49.8278 12.6738C49.8278 12.6738 49.4245 12.8242 49.6142 13.0488C49.8038 13.2734 49.5575 13.4413 49.5575 13.4413C49.5575 13.4413 48.5131 13.9296 48.0683 14.1651C47.6236 14.4006 48.0444 14.503 48.0444 14.503C48.0444 14.503 48.862 14.2218 49.104 14.1193C49.346 14.0168 49.4223 13.8272 49.3787 14.1259C49.3351 14.4246 49.2021 14.4311 49.2021 14.4311C49.2021 14.4311 48.4608 14.6208 48.088 14.732C47.713 14.8432 47.798 14.6731 47.8351 14.5532C47.8721 14.4333 47.7042 13.9841 46.8583 14.9304C46.5836 16.1273 47.6606 15.6324 48.3954 15.325C49.1301 15.0176 48.6766 15.7611 48.6766 15.7611C48.6766 15.7611 48.5502 16.0663 48.2624 16.1557C47.9746 16.2451 47.9005 17.0801 48.0487 17.5205C48.367 17.8541 48.3016 17.7495 48.633 17.6252C48.9644 17.5009 49.3765 16.6942 49.4768 16.3148C49.5771 15.9355 49.7777 15.7698 49.9281 15.4384C50.0786 15.107 50.0175 15.1549 50.5669 15.0503C51.7246 14.9282 51.5023 14.5445 51.4739 14.3199C51.4456 14.0975 51.3431 14.0147 51.402 13.8184C51.4608 13.6222 51.7944 13.2363 51.5132 13.1469C51.3257 13.1208 51.2101 12.8351 51.5502 12.8133ZM50.5517 14.2087C50.2813 14.4224 50.3707 13.9623 50.4274 13.7748C50.4863 13.5873 50.8482 13.2538 50.8482 13.2538L50.8809 13.5067C50.9114 13.7618 50.8198 13.995 50.5517 14.2087ZM51.3671 12.2421L51.5611 11.8584C51.5611 11.8584 51.9601 11.6447 51.9514 11.8475C51.9427 12.0502 51.8402 12.205 51.6113 12.3184C51.3802 12.434 51.3671 12.2421 51.3671 12.2421ZM54.3432 11.8824C54.3432 11.8824 54.16 11.6295 54.9362 11.479C55.5205 11.2872 55.7472 11.3983 55.9282 11.4747C56.1092 11.551 56.6978 11.95 56.1615 12.2901C55.6251 12.6302 54.4238 13.3671 54.1774 13.4391C53.9311 13.511 54.2298 13.8729 54.2298 13.8729C54.2298 13.8729 54.5481 13.9929 54.5677 14.1716C54.5873 14.3504 54.6571 14.5423 53.9551 14.6404C53.9551 14.6404 53.4144 14.2763 53.4601 13.7029C53.5081 13.1295 54.583 12.2574 54.7792 12.1702C54.9754 12.083 55.394 11.8736 54.7748 11.9412C54.1535 12.0066 54.3432 11.8824 54.3432 11.8824Z" fill="#C8161E"/>
<path d="M53.6206 12.6274L53.1496 14.3826C53.1496 14.3826 53.3088 14.775 52.8378 15.3833C52.3669 15.9916 52.5566 16.2053 52.5697 16.323C52.5828 16.4407 52.4083 16.5192 52.9011 16.6195C53.3938 16.7198 55.21 17.0752 55.452 17.0207C55.694 16.9662 56.1606 15.4073 56.0995 14.9407C56.0385 14.4741 56.4091 13.9443 56.5378 14.9189C56.5639 15.1238 56.7078 15.6951 56.6119 16.0069C56.516 16.3186 56.359 16.7612 56.4767 17.4066C56.4048 18.0672 56.383 18.4967 54.1569 17.8012C51.9745 17.3303 51.6627 17.2474 51.4229 16.3361C51.4229 16.3361 51.6692 14.823 52.4977 13.7852C53.3219 12.7474 53.6206 12.6274 53.6206 12.6274Z" fill="#C8161E"/>
<path d="M33.5524 6.26389C33.5524 6.26389 33.7115 6.03715 34.0582 6.12872C34.4049 6.22029 34.9717 6.03061 35.314 6.58221C35.6563 7.13382 35.0873 7.44996 34.9412 7.65273C34.7951 7.85767 33.2253 12.5322 32.9637 12.6368C32.7021 12.7415 32.5822 13.0511 32.5059 12.1899C32.9332 11.4028 34.1084 7.98413 34.2021 7.4456C34.2959 6.90707 34.2457 6.92016 33.995 6.78498C33.7443 6.65416 33.5524 6.61274 33.5524 6.26389ZM33.6745 11.8999C33.6745 11.8999 35.1658 9.77849 35.4994 9.66947C35.8329 9.56264 36.4173 9.8657 36.1164 10.3759C35.8155 10.8882 35.2377 11.5183 35.7087 11.5947C36.1796 11.671 36.6026 11.9784 35.7806 12.2902C34.9587 12.6019 34.963 12.4079 34.7537 12.2313C34.6883 12.0896 34.8976 11.7385 34.9129 11.6601C34.9281 11.5816 34.9216 11.272 34.3678 11.8606C33.8184 12.4493 33.6745 11.8999 33.6745 11.8999ZM33.6919 13.014C33.6919 13.014 34.0451 12.9094 34.2871 13.7117C34.6883 14.49 34.8235 14.1063 35.0132 15.1921C35.0786 15.5649 35.1353 15.8026 34.6229 16.195C34.056 16.3694 33.5655 14.7626 33.6505 14.6012C33.7355 14.4399 33.9034 14.3222 33.7966 13.8425C33.6919 13.3629 33.5262 13.2059 33.6919 13.014ZM34.8148 13.3738C34.8148 13.3738 35.7784 12.5649 36.1425 12.506C36.5067 12.445 36.8119 12.0896 36.777 13.4915C36.7421 14.8934 36.5263 14.9523 36.2973 15.0504C36.0684 15.1485 35.2726 15.1398 35.2901 14.3025C35.6694 13.8076 35.9289 13.6267 35.2268 13.7793C34.4899 13.7182 34.8148 13.3738 34.8148 13.3738ZM39.8119 9.30755L38.6673 10.184C38.6673 10.184 38.5866 9.94637 38.3424 9.80901C38.0961 9.67383 38.2443 9.43183 38.2443 9.43183C38.2443 9.43183 39.1666 8.41582 39.6288 7.83369C40.091 7.25156 39.6397 6.89617 39.2429 7.03789C38.8461 7.17961 36.6767 9.05464 36.6767 9.05464C36.6767 9.05464 36.4521 9.65421 37.1913 9.43837C38.1746 9.15057 37.6753 9.56482 37.6382 10.0532C37.6011 10.5394 38.0241 10.0794 37.9129 10.6223C37.8017 11.1651 38.0285 10.7204 37.878 11.3984C37.7276 12.0765 37.224 12.2182 36.9601 12.8025C36.8599 13.4522 37.5597 13.1012 37.6775 12.9224C37.793 12.7437 38.0023 11.8083 38.0677 11.9915C38.1331 12.1746 38.3533 12.8156 38.2116 13.2495L38.5648 14.961C38.5648 14.961 38.7283 16.4959 39.0009 16.9908C39.2734 17.4857 39.6026 17.6384 39.7204 17.6057C39.8381 17.5751 39.9319 16.8164 39.9209 16.2866C39.91 15.7568 39.1862 13.5852 39.0924 13.0162C38.9987 12.4471 39.1709 12.7655 39.4914 12.6063C39.8119 12.4471 40.163 11.6383 40.6688 10.1818C41.1746 8.72542 39.8119 9.30755 39.8119 9.30755ZM39.8817 10.3236C39.4217 11.1259 39.184 11.8759 39.184 11.8759C39.184 11.8759 38.7959 12.1136 38.857 11.2218C38.9158 10.3323 39.3388 10.0946 39.6223 9.90276C39.9079 9.70872 40.3417 9.52122 39.8817 10.3236Z" fill="#C8161E"/>
<path d="M12.4339 23.5448C12.3576 23.6472 12.0785 23.7824 12.1504 24.3122C12.2507 25.0622 12.1286 25.3936 12.3358 25.9736C12.6563 26.3966 12.4186 26.4118 12.5516 26.6887C12.6846 26.9656 13.1141 27.2512 13.3343 27.2752C13.5393 27.1793 13.7246 27.2905 13.7246 27.2905C14.4441 27.6328 14.7842 28.1648 14.9041 28.518C15.024 28.8712 15.87 29.5034 15.6672 29.6691C15.4666 29.8348 15.4775 29.6059 15.314 29.7193C15.1505 29.8348 15.0371 30.1052 15.0524 30.4301C15.0655 30.7549 15.2203 31.0231 14.9346 30.8334C14.649 30.6437 14.1868 30.2447 13.7529 29.9744C13.7551 29.4533 13.2166 27.7592 12.9571 27.3842C12.6999 27.0092 12.4513 27.1684 12.4513 27.1684C12.4513 27.1684 12.2682 27.4889 12.5472 27.8944C12.8263 28.2999 13.2275 29.3639 12.9397 29.2222C12.0676 28.8494 11.3481 27.0768 11.1541 26.7083C10.96 26.3399 10.5697 26.595 10.5196 26.8392C11.2216 28.8559 12.689 30.1052 13.5196 30.8988C13.3714 32.2658 13.7704 32.6866 14.3852 33.2382C15.0022 33.7877 16.9993 34.3589 17.2435 34.529C17.4877 34.7012 17.4114 34.8037 17.1476 34.7579C16.886 34.7121 14.6774 33.768 14.2304 33.4912C13.7813 33.2143 13.4695 32.6932 13.3082 32.4403C13.149 32.1874 13.077 32.3422 13.077 32.3422C11.5988 32.5645 11.3721 32.4337 11.1933 32.1416C11.0734 31.9453 10.6003 31.4766 10.6003 31.4766C10.3888 31.1801 10.0639 31.0776 9.811 30.853C9.55809 30.6285 9.55591 30.5805 9.55591 30.4344C9.55591 30.2883 9.69327 30.1052 9.69327 30.1052C9.69327 30.1052 9.69981 29.6604 9.36187 29.5274C9.02393 29.3944 8.80154 29.4686 8.58351 29.5078C8.36549 29.547 7.85312 29.7149 7.61329 30.1815C7.37346 30.6481 7.39091 30.9468 7.39091 30.9468C7.96214 31.1234 8.22595 31.2542 8.68163 31.4308C9.21143 31.2716 9.4796 31.385 9.69545 31.5791C9.91348 31.7731 11.3982 33.199 11.8779 33.4018C12.0654 33.4323 12.6802 33.5653 13.0422 33.6852C13.4063 33.8073 13.9165 34.2106 13.9165 34.2106C13.9165 34.2106 16.995 35.4469 17.6098 35.3226C18.2247 35.1983 18.277 34.9519 18.2421 34.8364C18.2072 34.7208 17.6404 33.7724 17.3264 33.973C17.0103 34.1736 16.91 34.0973 16.91 34.0973C16.91 34.0973 16.4848 33.8465 16.2929 33.7484C16.1011 33.6503 15.641 33.4846 15.2006 33.2295C14.7602 32.9744 14.7384 32.8284 14.5596 32.7019C14.3808 32.5754 14.3045 32.558 14.2413 31.8756C14.1781 31.1931 14.25 31.1386 14.3329 31.1757C14.4179 31.2128 14.6599 31.4679 15.1221 31.7491C15.5844 32.0304 15.471 32.0674 15.5037 32.2658C15.5364 32.4642 15.3772 32.7673 15.5713 33.018C15.7653 33.2688 16.4194 33.4475 16.4194 33.4475C16.4194 33.4475 17.3482 33.4432 17.285 32.9613C17.2196 32.4795 16.9187 32.486 16.7225 32.401C16.5262 32.316 16.4238 32.5253 16.2711 32.4097C16.1207 32.2942 16.0008 32.0544 15.8678 31.6663C15.6694 30.8421 16.0989 31.228 16.2254 31.3654C16.3496 31.5027 16.3954 31.8756 16.7813 32.2593C17.1672 32.643 17.6164 31.8429 17.6425 31.6205C17.6687 31.3981 17.6752 31.2651 17.309 31.1081C16.9427 30.9511 17.056 30.8814 17.0059 30.6415C16.9557 30.4017 16.5938 29.5231 16.5502 29.5056C16.5088 29.4882 16.5589 29.5252 16.2537 29.3443C15.9485 29.1633 15.9114 28.9082 16.1207 28.9845C16.5611 29.2396 16.9034 29.8087 17.0648 29.9787C17.2261 30.1488 18.5517 30.3472 18.7566 30.6873C18.9616 31.0275 19.6113 31.2215 19.7072 31.228C19.8032 31.2346 20.4376 31.4243 20.3134 30.9991C20.1891 30.5761 20.0452 30.6154 19.8969 30.3341C19.7487 30.0529 18.8286 29.8763 18.9027 29.7389C18.9769 29.6016 19.8032 29.486 20.3962 29.3704C20.9914 29.2549 21.7872 28.5703 20.8824 27.8813C19.2385 27.4126 16.0488 26.0455 15.0349 25.3762C14.0211 24.7068 13.6657 24.3689 13.8336 24.0048C13.2471 23.1022 12.508 23.4423 12.4339 23.5448ZM14.7013 27.539C14.6207 27.4518 14.8016 27.3864 14.8016 27.3864C14.8016 27.3864 14.8932 27.3232 15.0022 27.4365C15.0022 27.4365 15.1418 27.4889 15.1374 27.5543C15.133 27.6197 15.0153 27.6895 14.9216 27.6328C14.9194 27.6328 14.7842 27.6262 14.7013 27.539ZM18.6629 29.5514C17.7799 29.2854 16.7159 28.6575 16.7159 28.6575C16.7639 28.4591 17.1781 28.1822 16.9187 27.7701C16.6592 27.3581 17.0364 27.4256 17.2414 27.5608C17.4463 27.6938 19.6375 28.5594 19.8664 28.5289C20.0648 28.7709 19.5219 29.0194 18.6629 29.5514ZM13.7747 25.4154C13.7747 25.4154 14.7319 26.2614 15.1112 26.4249C15.4906 26.5884 15.9441 26.8915 16.0444 27.0485C16.1447 27.2054 16.1905 27.4932 15.8525 27.2294C15.5146 26.9678 15.2333 26.6451 15.0022 26.5274C14.7711 26.4096 14.4092 26.8784 14.346 26.9525C14.2827 27.0267 14.1192 27.0572 14.1192 27.0572C14.1192 27.0572 13.3278 26.2134 13.4106 25.4917C13.4957 24.7723 13.7747 25.4154 13.7747 25.4154Z" fill="#C8161E"/>
<path d="M25.2521 13.567C25.1257 13.6237 24.6308 14.2473 24.5697 14.7226C24.3931 15.3658 23.8241 16.9247 23.8241 16.9247C23.8241 16.9247 23.4142 18.3048 23.3749 17.9494C23.3357 17.594 23.2899 16.7546 23.2594 16.5213C23.2289 16.288 23.7456 14.9428 23.7456 14.9428C23.7456 14.9428 23.7521 14.703 24.0465 14.2582C24.1947 14.0358 24.5087 13.8963 23.9287 13.6019C23.5472 13.4101 23.1744 13.8832 23.1351 13.9442C23.061 14.0663 22.8909 14.4566 22.7972 14.3585C22.7034 14.2604 22.5007 13.8854 22.2368 13.4275C21.973 12.9696 20.8458 12.8715 20.3356 13.1419C20.2702 13.1768 19.9781 13.3468 20.1787 13.6281C20.6758 13.5169 21.694 15.0932 22.0123 15.7647C22.3262 16.0111 21.3626 17.3215 21.2732 17.4545C21.1838 17.5875 20.4512 18.1194 20.4425 18.1914C20.4338 18.2633 20.6954 18.9131 20.9897 18.6623C21.2841 18.4116 21.4846 18.3157 21.5784 18.3287C21.6722 18.3418 21.731 18.5293 22.3001 17.8927C22.8691 17.2539 22.7928 17.8491 22.7928 17.8491L22.795 18.211C22.7688 19.7285 22.8081 19.4211 22.4549 20.0381C22.3546 20.823 21.7441 21.0432 21.7114 21.5839C22.1518 21.7736 21.8924 21.8499 22.42 22.4625C22.9476 23.0752 22.6533 22.964 23.0915 23.5418C24.2405 24.1392 24.0683 23.1624 24.0683 23.1624C23.8699 22.2903 22.8233 21.9131 22.6206 21.9218C22.4134 21.8521 22.3153 21.6035 22.2325 21.4116C22.3568 21.1871 23.2114 19.9814 23.2114 19.9814C23.7434 19.9073 24.1838 19.9029 24.3953 19.4603C24.6068 19.0177 24.3582 18.163 24.5283 17.86C24.6984 17.5569 24.7878 17.8709 24.7878 17.8709C24.7878 17.8709 24.8183 19.6871 24.8466 19.8353C24.875 19.9836 24.718 19.9988 24.6831 20.0926C24.6482 20.1842 24.7093 20.6267 25.0101 20.4131C25.311 20.1994 25.3459 20.3847 25.3481 20.4698C25.3503 20.5548 25.178 20.69 25.178 20.69C25.1475 20.9276 25.0799 21.2808 25.4898 21.5163C25.8997 21.7518 25.7035 21.5207 25.8234 21.2111C25.9433 20.9036 26.0828 21.2438 26.0872 21.3048C26.0916 21.3659 26.1591 21.6537 26.1591 21.6537C26.5102 22.0635 26.6105 21.8564 26.9353 21.3659C27.2602 20.8775 26.6824 20.3673 26.5472 20.2147C26.4121 20.0621 26.2071 19.7961 26.4796 19.711C26.7522 19.626 28.2239 19.844 28.721 19.8593C29.2181 19.8767 29.5298 19.3666 29.3881 19.1006C28.5269 17.7444 26.3161 14.9711 26.242 14.099C25.8495 13.1855 25.3786 13.5103 25.2521 13.567ZM25.7165 15.0649C25.9738 15.5707 28.0189 18.2895 28.1824 18.5882C28.346 18.8869 28.2893 19.1463 27.7834 19.2009C27.2776 19.2554 26.7173 19.2663 26.7173 19.2663C26.7173 19.2663 26.6453 18.7016 26.1155 19.2227C26.0065 19.3295 25.8801 19.1071 26.0654 18.9632C26.2507 18.8171 25.8932 18.3484 25.7711 18.4661C25.649 18.5838 25.4506 18.9305 25.4026 18.2851C25.3546 17.6376 25.5508 17.6768 25.5574 17.437C25.5639 17.1972 25.8408 16.4232 24.9469 16.6325C24.3037 17.0075 24.4084 17.6136 24.3103 17.9864C24.125 18.3244 24.1075 19.0221 24.0159 19.1245C23.9265 19.227 23.6257 19.4407 23.5777 19.1572L25.2849 14.9973C25.2849 14.9973 25.4593 14.5612 25.7165 15.0649Z" fill="#C8161E"/>
<path d="M37.4917 56.8536V61.127H36.8812V57.6451C36.6305 57.8893 36.3078 58.0702 35.9219 58.1836V57.5317C36.105 57.4837 36.2947 57.4009 36.5018 57.281C36.709 57.1502 36.8812 57.0106 37.0186 56.8558H37.4917V56.8536ZM41.7824 57.3616C42.031 57.7214 42.1618 58.225 42.1618 58.8747C42.1618 59.5594 42.0266 60.1153 41.7606 60.5405C41.4837 60.9656 41.1175 61.1837 40.6531 61.1837C39.8682 61.1837 39.4277 60.7999 39.3253 60.0368H39.9249C40.0033 60.4445 40.2519 60.6517 40.6596 60.6517C40.9365 60.6517 41.1567 60.5034 41.3268 60.22C41.4859 59.9474 41.5688 59.6051 41.5688 59.1974C41.5688 59.1734 41.5622 59.1495 41.5622 59.1211H41.5404C41.4271 59.3043 41.281 59.4394 41.1109 59.5354C40.9474 59.6182 40.7599 59.6662 40.5528 59.6662C40.1581 59.6662 39.8355 59.531 39.5978 59.265C39.3667 59.0056 39.2533 58.6676 39.2533 58.2556C39.2533 57.8304 39.3841 57.4881 39.6545 57.2156C39.9248 56.9387 40.2584 56.8013 40.6596 56.8013C41.1502 56.7991 41.523 56.9823 41.7824 57.3616ZM40.0753 57.5688C39.9205 57.741 39.8464 57.9634 39.8464 58.2381C39.8464 58.5128 39.9205 58.7287 40.0753 58.89C40.217 59.0579 40.4176 59.1407 40.6749 59.1407C40.9256 59.1407 41.1327 59.0579 41.281 58.89C41.4292 58.7221 41.5034 58.4954 41.5034 58.2207C41.5034 57.9394 41.4227 57.7192 41.2744 57.5579C41.1196 57.39 40.9212 57.3071 40.6814 57.3071C40.4307 57.3071 40.2235 57.39 40.0753 57.5688ZM46.1168 57.0869C46.3566 57.2962 46.4809 57.5818 46.4809 57.946C46.4809 58.4104 46.252 58.7265 45.8094 58.8813C46.0492 58.9598 46.2302 59.0775 46.3566 59.2323C46.494 59.3937 46.5616 59.6008 46.5616 59.8515C46.5616 60.244 46.4308 60.5666 46.1735 60.8174C45.901 61.0681 45.5412 61.1989 45.1073 61.1989C44.6909 61.1989 44.3552 61.0855 44.1044 60.8653C43.8188 60.6146 43.6596 60.2505 43.6248 59.7752H44.2461C44.257 60.0652 44.3443 60.2876 44.5165 60.4445C44.6669 60.5884 44.861 60.6604 45.103 60.6604C45.3668 60.6604 45.5805 60.5754 45.7418 60.4206C45.8792 60.2767 45.9555 60.1022 45.9555 59.8842C45.9555 59.6313 45.8813 59.4438 45.7309 59.3239C45.5935 59.204 45.3864 59.1429 45.1139 59.1429H44.8152V58.6633H45.1073C45.3603 58.6633 45.5478 58.6044 45.6742 58.4888C45.8007 58.3755 45.8683 58.2076 45.8683 57.9917C45.8683 57.7759 45.805 57.6145 45.6917 57.5012C45.5652 57.3813 45.3777 57.3268 45.1357 57.3268C44.8893 57.3268 44.6953 57.3922 44.5579 57.5252C44.4206 57.656 44.3355 57.8544 44.3116 58.1182H43.7054C43.7403 57.6952 43.8886 57.3682 44.1546 57.1283C44.4053 56.8907 44.7302 56.7773 45.1292 56.7773C45.5412 56.7773 45.8661 56.8798 46.1168 57.0869ZM50.5013 57.1327C50.7281 57.3464 50.8436 57.6146 50.8436 57.9307C50.8436 58.1509 50.7978 58.3362 50.7063 58.4845C50.6038 58.6458 50.4512 58.7636 50.2462 58.8486V58.866C50.4403 58.914 50.6103 59.0317 50.7477 59.2236C50.9069 59.4264 50.9875 59.6575 50.9875 59.9256C50.9875 60.3007 50.8567 60.6037 50.5951 60.8414C50.3269 61.0725 49.9519 61.1924 49.4744 61.1924C48.9904 61.1924 48.6154 61.0725 48.3538 60.8414C48.0921 60.6037 47.9613 60.3007 47.9613 59.9256C47.9613 59.6575 48.042 59.4264 48.2011 59.2236C48.3385 59.0339 48.502 58.914 48.7026 58.866V58.8486C48.4977 58.7657 48.345 58.6458 48.2426 58.4845C48.151 58.3362 48.1052 58.1509 48.1052 57.9307C48.1052 57.6146 48.2186 57.3464 48.4475 57.1327C48.6983 56.8951 49.0449 56.7751 49.4766 56.7751C49.9039 56.7773 50.2462 56.8951 50.5013 57.1327ZM48.8029 59.3609C48.6481 59.5048 48.574 59.6902 48.574 59.9278C48.574 60.148 48.6481 60.329 48.8073 60.4663C48.9621 60.6037 49.1845 60.6757 49.4744 60.6757C49.76 60.6757 49.989 60.6037 50.1547 60.4663C50.3029 60.329 50.3771 60.1502 50.3771 59.9278C50.3771 59.688 50.3029 59.5027 50.1547 59.3653C49.9955 59.2105 49.7709 59.132 49.4744 59.132C49.1801 59.1342 48.9512 59.2061 48.8029 59.3609ZM48.877 57.4968C48.7462 57.6167 48.683 57.7715 48.683 57.9503C48.683 58.1531 48.7353 58.3144 48.8421 58.4343C48.973 58.5782 49.1844 58.6502 49.4766 58.6502C49.7622 58.6502 49.9737 58.5782 50.1111 58.4343C50.2135 58.3144 50.2702 58.1531 50.2702 57.9503C50.2702 57.7715 50.2026 57.6167 50.0762 57.4968C49.9279 57.3529 49.7273 57.2875 49.4766 57.2875C49.2259 57.2875 49.0253 57.3529 48.877 57.4968Z" fill="#C8161E"/>
<path d="M9.12016 45.8368C9.15069 45.9916 9.18993 46.0962 9.23572 46.1551C9.31421 46.2532 9.43849 46.2881 9.60855 46.2619L12.4647 45.8128C12.6304 45.7866 12.735 45.7212 12.7808 45.6144C12.807 45.5512 12.8135 45.4313 12.8048 45.2568L12.9553 45.2329L13.2561 47.1995L13.1057 47.2234C13.0708 47.0556 13.0294 46.94 12.9836 46.879C12.9051 46.7787 12.783 46.7416 12.613 46.7678L11.3898 46.9596L11.6013 48.3441L12.8244 48.1522C12.9945 48.1261 13.1013 48.0563 13.1428 47.9429C13.1689 47.8732 13.1755 47.7489 13.1602 47.5723L13.3106 47.5483L13.6137 49.5258L13.4633 49.5498C13.424 49.3819 13.3804 49.2685 13.3346 49.2118C13.2605 49.1181 13.1384 49.0832 12.9705 49.1094L10.1144 49.5585C9.94213 49.5847 9.83311 49.661 9.78951 49.7874C9.76334 49.8594 9.75898 49.9728 9.77643 50.1297L9.62599 50.1537L9.32293 48.1762L9.47337 48.1522C9.50389 48.3179 9.54532 48.4335 9.59764 48.4967C9.67613 48.5948 9.79823 48.6297 9.96829 48.6035L11.3266 48.3899L11.1151 47.0054L9.7568 47.2191C9.58238 47.2474 9.47337 47.3237 9.42976 47.4502C9.40578 47.5243 9.4036 47.6421 9.42104 47.8034L9.2706 47.8274L8.96973 45.8608L9.12016 45.8368ZM14.2743 51.9808L14.1282 52.0222C14.0585 51.8042 13.9843 51.669 13.9015 51.6123C13.8186 51.5556 13.6682 51.56 13.4502 51.6232L11.5272 52.1792C11.235 52.2642 11.0192 52.3623 10.8796 52.4779C10.618 52.6872 10.5373 52.9663 10.6355 53.3151C10.7575 53.749 11.0039 53.9954 11.3724 54.0542C11.5751 54.0869 11.839 54.0564 12.1616 53.9627L13.9168 53.4546C14.1217 53.3958 14.2525 53.3173 14.3092 53.2192C14.3659 53.1232 14.3724 52.9619 14.3288 52.7395L14.4749 52.6981L14.8237 53.9408L14.6777 53.9823C14.5905 53.8122 14.5141 53.7054 14.4466 53.6618C14.379 53.6182 14.2525 53.6247 14.0672 53.677L12.2336 54.209C11.7452 54.3507 11.3375 54.342 11.0061 54.1872C10.6747 54.0324 10.4414 53.7054 10.3019 53.2083C10.1187 52.5586 10.1929 52.0571 10.5199 51.7039C10.6943 51.5164 10.945 51.3747 11.2765 51.2787L13.1973 50.7228C13.4131 50.6595 13.5396 50.5941 13.581 50.52C13.6202 50.4481 13.6246 50.3107 13.5919 50.1058L13.738 50.0643L14.2743 51.9808ZM11.4334 56.0143C11.5228 56.2127 11.6144 56.3261 11.7125 56.3522C11.8084 56.3784 11.9284 56.3631 12.0701 56.3021L14.6711 55.1836C14.7889 54.9372 14.8586 54.7868 14.8739 54.7345C14.8913 54.6821 14.8892 54.6189 14.8717 54.5491L15.0112 54.4903L15.4887 55.6371L13.9691 58.4845L13.98 58.5107L15.5934 57.8174C15.7787 57.7367 15.8986 57.6473 15.9509 57.547C16.0033 57.4467 15.9946 57.2919 15.927 57.0848L16.0665 57.0259L16.5505 58.1902L16.411 58.2491C16.3129 58.0921 16.2257 57.9961 16.1537 57.9591C16.0818 57.922 15.9618 57.9395 15.7961 58.0114L12.5584 59.4024L12.4952 59.252L14.44 55.6066L14.4248 55.5695L12.2707 56.4939C12.1028 56.5659 11.9916 56.64 11.9414 56.7163C11.8586 56.8362 11.8586 57.0107 11.9436 57.2396L11.8041 57.2985L11.2939 56.071L11.4334 56.0143ZM13.4371 60.6626C13.5156 60.7803 13.629 60.8436 13.7772 60.8567C13.871 60.8654 14.0541 60.8479 14.3288 60.8022L17.7933 60.2396L17.8761 60.3814L15.8354 63.1307C15.6065 63.4403 15.4669 63.6518 15.4146 63.7673C15.3623 63.8829 15.3732 63.9962 15.4429 64.1096L15.3121 64.1881L14.3572 62.5485L14.488 62.4701C14.5905 62.6314 14.6689 62.7317 14.7191 62.7688C14.7714 62.808 14.8412 62.8015 14.9306 62.747C14.9698 62.723 15.0243 62.6728 15.0897 62.5965C15.129 62.5507 15.1748 62.494 15.2271 62.4243L15.4626 62.1081L14.7998 60.9722C14.5534 61.0202 14.3921 61.0529 14.3179 61.0681C14.1609 61.103 14.0519 61.1379 13.9909 61.175C13.9168 61.2186 13.8928 61.2993 13.9146 61.417C13.9298 61.4868 13.9691 61.5783 14.0367 61.6939L13.9059 61.7724L13.3041 60.7389L13.4371 60.6626ZM15.6239 61.9141L16.5287 60.7128L16.5047 60.6713L15.0505 60.9286L15.6239 61.9141ZM16.0185 64.9643C16.1581 65.13 16.278 65.2128 16.3783 65.2107C16.4786 65.2085 16.5876 65.1605 16.7075 65.0624L18.9008 63.255C18.9466 62.9846 18.9706 62.8211 18.9728 62.7666C18.975 62.7099 18.9575 62.651 18.9183 62.59L19.036 62.494L19.81 63.4621L19.1298 66.6278L19.1472 66.6496L20.5077 65.529C20.6647 65.4003 20.7541 65.2804 20.7759 65.167C20.7977 65.0559 20.7475 64.9098 20.6276 64.731L20.7454 64.6351L21.5303 65.6162L21.4125 65.7121C21.2752 65.59 21.1661 65.5202 21.0877 65.505C21.0092 65.4897 20.898 65.5399 20.7584 65.6576L18.0287 67.9077L17.9263 67.7812L18.7962 63.7303L18.7722 63.6997L16.956 65.1976C16.8143 65.3153 16.7293 65.4178 16.701 65.505C16.6552 65.6445 16.7031 65.8124 16.8449 66.0065L16.7271 66.1024L15.9008 65.0668L16.0185 64.9643ZM20.8827 70.4411C21.0571 70.5698 21.1923 70.6199 21.2904 70.5959C21.3885 70.5719 21.4823 70.4956 21.576 70.3735L23.2919 68.0952C23.2745 67.8204 23.2614 67.6569 23.2505 67.6024C23.2396 67.5479 23.2091 67.4956 23.1567 67.4433L23.2483 67.3212L24.2229 68.0777L24.2905 71.3154L24.3123 71.3329L25.3762 69.92C25.4983 69.7565 25.5572 69.6192 25.555 69.5058C25.5507 69.3924 25.47 69.2616 25.3108 69.1155L25.4024 68.9934L26.3901 69.7609L26.2985 69.883C26.135 69.7958 26.0151 69.7543 25.9344 69.7587C25.8537 69.7631 25.7578 69.8372 25.6488 69.9854L23.5121 72.822L23.3835 72.7217L23.2963 68.577L23.2657 68.553L21.8442 70.4389C21.733 70.5872 21.6741 70.7071 21.6654 70.7987C21.6523 70.9448 21.7374 71.0974 21.9227 71.2522L21.8311 71.3743L20.789 70.5654L20.8827 70.4411ZM29.6321 72.1134C29.7978 72.6585 29.7346 73.2144 29.4424 73.7769C29.1503 74.3394 28.7339 74.7057 28.1975 74.8758C27.6721 75.0393 27.1532 74.9848 26.6386 74.7079C26.0914 74.4136 25.7447 73.9841 25.5986 73.4172C25.4635 72.8852 25.5289 72.3641 25.7927 71.8561C26.0848 71.2936 26.4925 70.923 27.018 70.7442C27.5478 70.561 28.082 70.6134 28.6183 70.9012C29.1328 71.1759 29.473 71.5814 29.6321 72.1134ZM27.8923 74.237C28.1038 74.0211 28.3174 73.705 28.5333 73.2886C28.8298 72.7173 28.9715 72.2442 28.9606 71.8692C28.9475 71.492 28.8036 71.2304 28.5246 71.0799C28.1365 70.8728 27.7462 70.9709 27.3516 71.3765C27.1423 71.5923 26.933 71.9063 26.7193 72.3162C26.5034 72.7326 26.3661 73.0901 26.3094 73.3867C26.2047 73.9383 26.3443 74.3198 26.7324 74.5269C27.1139 74.7319 27.4998 74.636 27.8923 74.237ZM29.5776 75.8656C29.7651 75.9201 29.9047 75.9289 29.9941 75.8896C30.0834 75.8504 30.1641 75.7239 30.2361 75.5102L31.0929 72.9768C31.167 72.7566 31.1758 72.5974 31.1191 72.5037C31.0798 72.4404 30.9708 72.3685 30.7899 72.2856L30.84 72.1395L32.6017 72.7544C32.9679 72.8808 33.2492 73.0247 33.4498 73.1839C33.8335 73.5 33.9534 73.8685 33.8117 74.2893C33.7071 74.6011 33.5086 74.806 33.2187 74.9041C32.9985 74.9761 32.7826 74.9979 32.5733 74.9674L33.186 77.0037C33.2012 77.0582 33.223 77.0997 33.2514 77.1258C33.2797 77.152 33.319 77.176 33.3691 77.1956L33.3233 77.3329L32.1809 76.934L31.5093 74.697H31.5072L31.1278 75.8198C31.0602 76.0204 31.0449 76.1687 31.0864 76.2603C31.1278 76.3518 31.2412 76.4369 31.433 76.511L31.3829 76.6571L29.5318 76.0117L29.5776 75.8656ZM32.388 74.6229C32.5755 74.5771 32.7303 74.3721 32.8546 74.0102C32.9287 73.7878 32.9592 73.6025 32.944 73.4542C32.9156 73.2013 32.7674 73.0269 32.4992 72.9332C32.3531 72.883 32.2506 72.8678 32.1918 72.8896C32.1329 72.9114 32.0893 72.9659 32.0588 73.0553L31.566 74.5117C31.9258 74.6316 32.2005 74.6687 32.388 74.6229ZM34.2826 77.4681C34.5007 77.5074 34.6489 77.4943 34.7274 77.4267C34.8059 77.3613 34.8604 77.2479 34.8888 77.0909L35.4055 74.2609C35.436 74.0996 35.4164 73.9862 35.3532 73.9208C35.2877 73.8554 35.1635 73.7987 34.976 73.7464L35.0043 73.596L36.4389 73.8663L37.0559 76.8337L37.1039 76.8424L38.7217 74.2958L40.1563 74.5662L40.1279 74.7166C39.9317 74.6948 39.7944 74.7079 39.7137 74.7537C39.633 74.7995 39.572 74.9368 39.5284 75.1658L39.0465 77.8017C39.0073 78.0219 39.016 78.1702 39.0727 78.253C39.1316 78.3337 39.2558 78.3969 39.4477 78.4405L39.4194 78.591L37.5291 78.2356L37.5574 78.0851C37.7275 78.1113 37.8605 78.1048 37.9542 78.0677C38.0501 78.0306 38.1134 77.9216 38.1461 77.7407L38.6781 74.83L38.6366 74.8213L36.6003 78.059L36.4476 78.0306L35.6649 74.3329L35.6409 74.3285L35.1482 77.0212C35.1111 77.2196 35.1199 77.3722 35.1744 77.4768C35.2289 77.5815 35.375 77.6622 35.6148 77.7167L35.5864 77.8671L34.2543 77.6164L34.2826 77.4681ZM40.4986 78.5234C40.6381 78.5212 40.7537 78.4623 40.8453 78.3468C40.9041 78.2726 40.9935 78.1091 41.1091 77.854L42.5916 74.6229L42.753 74.6338L43.854 77.8867C43.9783 78.253 44.072 78.4885 44.1375 78.5953C44.2029 78.7022 44.301 78.7588 44.434 78.7632L44.4253 78.9158L42.5546 78.8003L42.5633 78.6477C42.753 78.652 42.8773 78.6433 42.9383 78.6193C42.9994 78.5975 43.0321 78.5343 43.0386 78.4296C43.0408 78.3817 43.0299 78.3097 43.0059 78.2116C42.9906 78.1527 42.9688 78.083 42.9427 78.0001L42.8184 77.6251L41.5211 77.5444C41.423 77.7799 41.3576 77.9325 41.3293 78.0045C41.2682 78.1571 41.2377 78.2683 41.2333 78.3402C41.229 78.4274 41.2791 78.4929 41.3881 78.5386C41.4535 78.5648 41.5517 78.5822 41.6825 78.5931L41.6737 78.7458L40.4942 78.6738L40.4986 78.5234ZM42.7443 77.3831L42.2711 75.9485L42.2232 75.9463L41.6171 77.3133L42.7443 77.3831ZM45.341 78.7349C45.4958 78.6956 45.6004 78.652 45.6593 78.6019C45.7596 78.5168 45.7923 78.386 45.7552 78.2116L45.1687 75.338C45.1338 75.1658 45.0553 75.0611 44.9376 75.024C44.8678 75.0001 44.7501 75.0023 44.5822 75.0262L44.5517 74.8758L46.5336 74.4594L46.5641 74.6098C46.3352 74.6665 46.1891 74.7319 46.1237 74.8082C46.0583 74.8845 46.0517 75.0393 46.0997 75.2726L46.6709 78.0764C46.6971 78.2072 46.7472 78.2879 46.8235 78.3163C46.8977 78.3446 47.0307 78.3402 47.2204 78.2988C47.5627 78.2269 47.833 78.0873 48.0314 77.8824C48.232 77.6753 48.3672 77.3286 48.4435 76.8359L48.6092 76.801L48.6528 78.1942L45.3693 78.8853L45.341 78.7349ZM52.7364 72.7108L52.7866 72.8569C52.5773 72.9397 52.4486 73.0247 52.3985 73.1119C52.3483 73.1992 52.3614 73.3518 52.4377 73.5698L53.1049 75.4841C53.2052 75.7741 53.3164 75.9877 53.4385 76.1229C53.6609 76.3736 53.9399 76.439 54.2779 76.3191C54.6965 76.1687 54.9232 75.9027 54.9581 75.5255C54.9777 75.3184 54.932 75.0524 54.8186 74.7297L54.2103 72.9833C54.1383 72.7784 54.0533 72.6519 53.9552 72.5996C53.8571 72.5473 53.7001 72.5516 53.4843 72.6105L53.4341 72.4644L54.6333 72.0327L54.6834 72.1788C54.5221 72.2769 54.4218 72.3619 54.3825 72.4317C54.3433 72.5037 54.3564 72.6301 54.4218 72.8154L55.0584 74.6425C55.2285 75.1287 55.2459 75.5429 55.1151 75.8874C54.9821 76.2319 54.6769 76.4914 54.1972 76.6636C53.5693 76.8882 53.0722 76.8467 52.7037 76.5371C52.5075 76.3736 52.3527 76.1251 52.2393 75.7959L51.5722 73.8838C51.498 73.6701 51.4239 73.5436 51.3498 73.5088C51.2757 73.4739 51.1405 73.4782 50.9421 73.524L50.8919 73.3779L52.7364 72.7108ZM56.8877 75.3445C57.0773 75.2442 57.1842 75.144 57.206 75.0437C57.2278 74.9434 57.2038 74.8235 57.1362 74.6839L55.8956 72.1068C55.6471 72 55.4967 71.939 55.4421 71.9259C55.3898 71.9106 55.3288 71.915 55.259 71.939L55.1936 71.8016L56.2968 71.2544L59.1791 72.641L59.2053 72.6279L58.4356 71.0298C58.3463 70.8445 58.2525 70.7289 58.15 70.6831C58.0476 70.6352 57.8971 70.6526 57.6965 70.7311L57.6311 70.5937L58.7496 70.04L58.815 70.1773C58.6668 70.2863 58.5752 70.3779 58.5425 70.452C58.5098 70.5261 58.5338 70.6461 58.6144 70.8118L60.1581 74.0189L60.0142 74.0909L56.3252 72.3162L56.2903 72.3336L57.3172 74.4681C57.3978 74.636 57.4763 74.7428 57.5548 74.7908C57.6791 74.8692 57.8492 74.8583 58.0694 74.7602L58.1348 74.8976L56.9552 75.4819L56.8877 75.3445ZM61.3441 73.0204C61.4815 72.9288 61.5709 72.8481 61.6123 72.7784C61.6777 72.6628 61.6646 72.5276 61.5709 72.375L60.0382 69.8873C59.9444 69.7369 59.8354 69.6649 59.7089 69.6737C59.6326 69.678 59.5171 69.7238 59.3666 69.811L59.286 69.6802L61.0018 68.5901L61.0825 68.7209C60.9342 68.8255 60.8383 68.9106 60.7991 68.976C60.7358 69.0893 60.7489 69.2202 60.8448 69.3728L62.3776 71.8605C62.467 72.0044 62.5629 72.0763 62.6697 72.0763C62.7766 72.0763 62.9074 72.0262 63.06 71.9302L63.1407 72.0611L61.4248 73.1512L61.3441 73.0204ZM63.0556 67.0508L63.1472 67.1664C62.9924 67.3059 62.8987 67.4062 62.866 67.4651C62.8333 67.5239 62.8463 67.5915 62.9074 67.6678C62.927 67.6918 62.9466 67.7136 62.9662 67.731C62.9859 67.7485 63.012 67.7659 63.0404 67.7834L65.1334 68.9542L65.1269 68.9607L64.4619 66.8764C64.4467 66.8306 64.4314 66.7848 64.4118 66.739C64.3812 66.6649 64.3529 66.6082 64.3246 66.5711C64.2548 66.4818 64.185 66.4469 64.1174 66.4643C64.0498 66.4818 63.9321 66.5493 63.7686 66.6671L63.677 66.5515L64.6407 65.771L64.7323 65.8865C64.632 65.989 64.5753 66.0893 64.5622 66.1896C64.5491 66.2899 64.5709 66.4294 64.6276 66.6082L65.781 70.2296L65.6611 70.3256L62.2686 68.4309C62.1312 68.3546 62.02 68.311 61.9306 68.3023C61.8412 68.2914 61.7409 68.3241 61.6297 68.4004L61.5382 68.2848L63.0556 67.0508ZM67.9046 68.2543L67.7934 68.1497C67.9024 68.0232 67.9656 67.9185 67.9852 67.8401C68.0136 67.718 67.9656 67.5959 67.8413 67.4781L65.733 65.4701C65.6066 65.3502 65.4823 65.3088 65.3645 65.3502C65.2948 65.372 65.1988 65.4418 65.0768 65.5595L64.9656 65.4548L67.2483 62.9824L68.1248 63.8175L68.0288 63.9221C67.6974 63.7085 67.4205 63.6191 67.196 63.6518C66.9714 63.6845 66.701 63.872 66.3827 64.2165C66.2606 64.3473 66.1974 64.4454 66.193 64.5064C66.1887 64.5675 66.2258 64.6394 66.3086 64.7157L67.3159 65.675C67.5448 65.433 67.6516 65.2259 67.6386 65.0493C67.6255 64.8749 67.5165 64.646 67.3137 64.3647L67.414 64.2557L68.8835 65.6554L68.7832 65.7644C68.5063 65.5595 68.2752 65.4548 68.0855 65.4527C67.898 65.4505 67.6909 65.5726 67.4641 65.8168L68.5172 66.8197C68.6088 66.9069 68.6938 66.944 68.7701 66.9287C68.8464 66.9135 68.9511 66.8328 69.0863 66.6889C69.3392 66.4142 69.4918 66.1395 69.5441 65.8647C69.5965 65.59 69.5376 65.2434 69.3653 64.8269L69.4765 64.707L70.22 65.7426L67.9046 68.2543ZM70.9351 64.659C71.0398 64.489 71.0834 64.356 71.0703 64.2579C71.0572 64.1598 70.9591 64.0464 70.7782 63.9178L68.611 62.3894C68.4213 62.2564 68.2752 62.2041 68.1706 62.2346C68.1008 62.2542 68.0005 62.3436 67.874 62.4984L67.7498 62.4112L68.8137 60.8567C69.0339 60.534 69.2476 60.2985 69.4525 60.1459C69.8559 59.8581 70.2374 59.8407 70.5972 60.0936C70.8632 60.2811 71.0049 60.5318 71.018 60.8414C71.0267 61.0769 70.9875 61.2927 70.9024 61.4889L72.9998 61.4475C73.0565 61.4475 73.1001 61.4366 73.1328 61.4148C73.1656 61.393 73.1982 61.3625 73.2309 61.3211L73.3487 61.4039L72.6597 62.4112L70.3574 62.457L70.3552 62.4592L71.3145 63.135C71.4867 63.2571 71.6219 63.3095 71.72 63.2964C71.8181 63.2811 71.9293 63.1917 72.0514 63.026L72.1757 63.1132L71.0594 64.7441L70.9351 64.659ZM70.5252 61.574C70.534 61.3777 70.3813 61.1706 70.0739 60.9526C69.8842 60.8196 69.7164 60.7389 69.5703 60.7128C69.3217 60.6713 69.1168 60.7695 68.9555 61.0049C68.8682 61.1336 68.8268 61.2295 68.8312 61.2927C68.8355 61.3559 68.877 61.4148 68.9511 61.4671L70.1982 62.3458C70.4075 62.0275 70.5187 61.7702 70.5252 61.574ZM72.6445 59.7665L72.7208 59.6161C73.159 59.7404 73.5144 59.7556 73.7891 59.6641C74.0638 59.5725 74.26 59.4068 74.3821 59.167C74.4999 58.9337 74.5217 58.7353 74.4497 58.5739C74.3756 58.4104 74.2709 58.2948 74.1336 58.2229C73.9744 58.14 73.8196 58.1226 73.667 58.1727C73.5667 58.2055 73.4119 58.2992 73.2004 58.4518L72.8603 58.696C72.5224 58.938 72.2367 59.0841 72.0035 59.1321C71.768 59.1822 71.5303 59.143 71.2862 59.0143C71.0267 58.8792 70.8305 58.6633 70.6975 58.3646C70.5645 58.0681 70.5906 57.7323 70.7803 57.3617C70.8763 57.172 70.9984 57.0041 71.1466 56.8581C71.2949 56.712 71.3755 56.6269 71.3886 56.6008C71.417 56.5441 71.4213 56.4961 71.3973 56.4569C71.3755 56.4176 71.3385 56.3762 71.2905 56.3348L71.369 56.18L72.5245 56.7839L72.4504 56.93C72.1474 56.858 71.8574 56.858 71.5761 56.93C71.2949 57.0019 71.0921 57.1589 70.9678 57.4053C70.8806 57.5775 70.8588 57.7411 70.9068 57.8915C70.9526 58.0441 71.0463 58.1553 71.1859 58.2294C71.3537 58.3167 71.502 58.3363 71.6328 58.2839C71.7636 58.236 71.9947 58.0921 72.3218 57.8566L72.7142 57.5732C72.8886 57.4467 73.0565 57.3617 73.2157 57.3137C73.5122 57.2265 73.8044 57.2592 74.09 57.4075C74.3581 57.547 74.5587 57.7825 74.6917 58.1117C74.8247 58.4409 74.7768 58.8312 74.5478 59.2825C74.4955 59.3872 74.4323 59.4853 74.3581 59.5812C74.284 59.6771 74.2012 59.7665 74.1074 59.8494L74.018 59.93C73.9984 59.9497 73.9831 59.9693 73.9679 59.9889C73.9526 60.0085 73.9417 60.026 73.933 60.0412C73.9068 60.0957 73.9025 60.1394 73.9243 60.1764C73.9461 60.2135 73.9831 60.2549 74.0333 60.3007L73.957 60.4511L72.6445 59.7665ZM75.4875 56.7469C75.5442 56.5899 75.5682 56.4721 75.5617 56.3893C75.5464 56.2563 75.457 56.156 75.2935 56.0906L72.6074 55.0092C72.4439 54.9438 72.3152 54.9525 72.2171 55.0353C72.1583 55.0855 72.0929 55.1923 72.0231 55.3515L71.8814 55.2948L72.627 53.3827L72.7687 53.4394C72.7099 53.6138 72.6837 53.7381 72.6902 53.8166C72.7033 53.9452 72.7927 54.0433 72.9584 54.1109L75.6423 55.1901C75.7971 55.2534 75.917 55.2512 76.0043 55.188C76.0893 55.1226 76.1656 55.007 76.2332 54.8348L76.3749 54.8914L75.6292 56.8035L75.4875 56.7469ZM72.8974 52.6872L73.8523 49.2816L75.01 49.6108L74.9643 49.7744C74.5348 49.709 74.2121 49.7809 73.9962 49.9902C73.8763 50.1079 73.7717 50.3085 73.6866 50.5876L76.7085 51.4597C76.92 51.5208 77.0704 51.5251 77.1598 51.4728C77.2492 51.4205 77.3255 51.2787 77.3909 51.0476L77.537 51.0891L76.9723 53.1058L76.8262 53.0644C76.8873 52.8442 76.8938 52.6872 76.8437 52.5934C76.7935 52.4997 76.6649 52.4234 76.4556 52.3623L73.4337 51.4902C73.3639 51.7693 73.3487 51.9939 73.3879 52.1639C73.4621 52.4779 73.6997 52.7112 74.0987 52.866L74.0529 53.0295L72.8974 52.6872ZM74.3276 46.6609L74.4781 46.6849C74.4563 46.8877 74.4519 47.0185 74.4628 47.0774C74.4737 47.1362 74.5086 47.1733 74.5696 47.182C74.5958 47.1864 74.6263 47.1864 74.659 47.182C74.6917 47.1777 74.7528 47.1624 74.8422 47.1384L76.3793 46.6064L76.3814 46.5999L75.4483 45.8041C75.3916 45.7539 75.3196 45.6994 75.2346 45.6406C75.106 45.5512 75.0079 45.501 74.9403 45.4901C74.8378 45.4727 74.7615 45.501 74.7135 45.5773C74.6808 45.6275 74.6438 45.7452 74.6002 45.9305L74.4497 45.9066L74.6547 44.6311L74.8051 44.6551C74.8073 44.751 74.816 44.8273 74.8291 44.8862C74.8552 44.9625 74.901 45.0301 74.9664 45.089L76.6191 46.5018L77.7027 46.6827C77.9273 46.7198 78.0777 46.7067 78.154 46.6413C78.2303 46.5759 78.287 46.4407 78.3262 46.2358L78.4767 46.2598L78.1518 48.2722L78.0014 48.2482C78.0297 48.0323 78.0166 47.8819 77.9578 47.8012C77.9011 47.7184 77.7637 47.6595 77.5501 47.6246L76.6845 47.4807L74.5587 48.2155C74.4192 48.2634 74.3145 48.3354 74.247 48.4291C74.2034 48.4924 74.175 48.5578 74.1619 48.6275L74.0115 48.6035L74.3276 46.6609Z" fill="#C8161E"/>
</svg>
